<?xml version="1.0" standalone="no"?>
<!DOCTYPE svg PUBLIC "-//W3C//DTD SVG 20010904//EN"
 "http://www.w3.org/TR/2001/REC-SVG-20010904/DTD/svg10.dtd">
<svg version="1.0" xmlns="http://www.w3.org/2000/svg"
 width="1024.000000pt" height="1024.000000pt" viewBox="0 0 1024.000000 1024.000000"
 preserveAspectRatio="xMidYMid meet">

<g transform="translate(0.000000,1024.000000) scale(0.100000,-0.100000)"
fill="#ffffff" stroke="none">
<path d="M3615 8380 c-280 -11 -484 -43 -685 -109 -493 -163 -864 -555 -1014
-1075 -97 -334 -122 -643 -111 -1371 6 -415 17 -744 23 -698 11 76 121 790
148 958 136 855 282 1234 593 1546 162 162 307 254 552 352 242 97 519 157
1419 307 233 39 426 72 428 74 3 4 -432 14 -873 19 -159 2 -375 1 -480 -3z"/>
<path d="M6540 8330 c-396 -74 -770 -253 -1350 -645 -428 -289 -855 -603
-1266 -931 -514 -411 -730 -652 -799 -888 -26 -89 -18 -215 18 -289 55 -110
178 -206 345 -267 94 -34 225 -67 557 -140 256 -57 292 -66 450 -117 282 -90
509 -227 622 -374 151 -197 180 -429 83 -662 -49 -118 -102 -192 -229 -318
-301 -299 -718 -468 -1003 -408 -272 58 -315 316 -101 615 64 91 177 211 366
389 92 87 167 164 167 172 0 27 -34 25 -109 -6 -367 -155 -686 -274 -916 -341
-398 -116 -760 -125 -1012 -24 -164 66 -314 186 -410 327 -61 90 -93 106 -130
62 l-26 -29 6 -381 c6 -379 13 -496 43 -695 78 -527 318 -933 701 -1190 336
-226 719 -309 1118 -244 430 70 962 383 1855 1092 888 706 1386 1187 1547
1497 57 110 76 183 76 285 -1 116 -26 181 -104 264 -117 126 -293 193 -673
257 -412 69 -643 134 -872 244 -217 105 -364 232 -443 384 -52 101 -71 178
-71 293 0 149 35 255 130 392 112 162 295 311 515 420 198 98 333 136 487 136
240 0 383 -97 404 -274 23 -195 -131 -415 -521 -744 -146 -123 -175 -162 -119
-162 15 0 129 29 253 64 421 121 732 191 970 221 201 26 480 17 615 -19 231
-62 424 -189 560 -370 57 -75 70 -86 111 -86 51 0 55 23 55 290 0 703 -80
1111 -288 1466 -154 265 -422 503 -700 624 -218 94 -400 130 -650 129 -115 -1
-197 -7 -262 -19z"/>
<path d="M8407 5150 c-4 -14 -27 -176 -52 -360 -81 -591 -148 -974 -220 -1248
-137 -521 -383 -879 -759 -1107 -290 -177 -744 -297 -1770 -470 -208 -35 -380
-66 -382 -68 -11 -11 1224 -17 1391 -7 348 21 596 71 818 164 547 229 876 700
972 1390 32 228 38 430 31 961 -8 556 -17 786 -29 745z"/>
</g>
</svg>
